<?xml version="1.0" encoding="UTF-8"?>
<!DOCTYPE svg PUBLIC "-//W3C//DTD SVG 1.1//EN" "http://www.w3.org/Graphics/SVG/1.1/DTD/svg11.dtd">
<svg width="255pt" height="239pt" viewBox="0 0 255 239" version="1.1" xmlns="http://www.w3.org/2000/svg">
<path fill="#ffffff" d=" M 0.00 0.00 L 255.00 0.00 L 255.00 239.00 L 0.00 239.00 L 0.00 0.00 Z"/>
<path fill="#000000" d=" M 36.93 35.91 C 54.15 18.57 78.87 10.61 102.91 10.01 C 133.64 10.14 164.78 8.69 195.01 15.34 C 207.17 18.10 219.68 22.30 228.72 31.29 C 237.41 39.58 242.09 51.23 243.88 62.94 C 245.48 72.22 244.90 81.67 245.00 91.05 C 244.94 95.33 245.30 99.66 244.41 103.89 C 242.24 115.89 239.78 127.86 236.85 139.70 C 234.29 146.62 231.25 153.36 228.39 160.16 C 225.73 166.64 218.48 170.52 217.50 177.74 C 221.80 178.13 226.31 179.38 229.22 182.79 C 237.38 191.48 238.54 206.40 230.59 215.60 C 223.31 224.10 212.39 228.78 201.46 230.23 C 192.71 231.16 183.48 231.24 175.18 227.94 C 169.98 226.01 167.23 220.35 161.79 218.94 C 155.82 222.81 149.74 226.81 142.93 229.02 C 133.70 229.58 124.40 229.08 115.14 229.26 C 108.77 224.79 102.57 220.05 95.93 215.98 C 88.93 218.48 83.93 225.49 76.08 225.71 C 67.37 225.80 58.65 225.75 49.93 225.74 C 41.62 225.72 34.64 220.43 28.57 215.32 C 23.58 210.93 18.53 205.06 19.21 197.94 C 19.54 187.62 26.53 179.08 33.83 172.44 C 22.21 158.75 12.13 142.38 11.02 124.02 C 11.18 110.42 10.16 96.67 12.75 83.22 C 15.78 65.51 23.78 48.36 36.93 35.91 Z"/>
<path fill="#ffffff" d=" M 42.34 40.37 C 59.62 24.04 83.31 15.45 106.94 15.26 C 132.42 15.39 158.13 14.22 183.32 18.82 C 197.98 21.52 213.22 26.17 223.96 37.06 C 233.53 46.40 237.80 59.95 238.15 73.08 C 238.36 83.44 238.22 93.80 238.22 104.16 C 237.99 120.43 231.88 135.96 223.93 149.94 C 220.54 156.36 215.99 162.27 213.99 169.35 C 206.87 172.71 200.25 177.25 192.61 179.42 C 178.23 183.99 163.03 185.44 148.00 185.25 C 132.32 185.25 116.64 185.25 100.96 185.25 C 86.83 185.95 73.22 181.30 59.84 177.41 C 53.30 174.87 45.27 173.12 41.50 166.58 C 35.07 164.50 33.31 156.99 27.71 153.69 C 25.47 146.66 21.85 140.08 20.48 132.77 C 19.02 126.62 19.61 120.26 19.50 114.00 C 19.43 103.15 19.40 92.11 22.27 81.55 C 23.87 76.37 23.23 70.83 24.86 65.66 C 27.83 55.62 34.75 47.33 42.34 40.37 Z"/>
<path fill="#000000" d=" M 82.07 40.08 C 109.02 32.28 137.36 33.19 165.12 33.28 C 173.33 33.84 181.78 32.71 189.75 35.31 C 197.06 37.38 203.56 41.94 208.19 47.94 C 214.62 56.16 220.73 64.95 223.84 75.01 C 225.84 81.13 225.14 87.62 225.25 93.94 C 225.12 102.90 225.92 112.02 223.57 120.78 C 220.39 133.15 213.37 144.42 204.16 153.21 C 197.24 159.79 188.44 164.52 178.95 165.96 C 174.95 166.73 170.87 166.31 166.84 166.66 C 162.00 169.40 156.34 168.19 151.07 168.70 C 137.31 168.79 123.56 169.21 109.79 169.32 C 98.79 170.24 87.75 168.27 77.31 164.87 C 63.53 160.47 49.61 154.25 39.91 143.15 C 32.09 134.08 30.22 121.58 30.74 109.99 C 30.20 103.13 32.27 96.53 33.82 89.94 C 34.62 86.85 35.31 83.70 36.66 80.79 C 41.11 71.13 46.76 61.83 54.52 54.45 C 62.18 47.22 72.11 43.06 82.07 40.08 Z"/>
<path fill="#ffffff" d=" M 81.51 43.26 C 97.84 39.82 114.23 36.13 130.93 35.03 C 143.94 34.96 156.96 35.01 169.97 35.01 C 179.85 35.42 190.32 36.43 198.76 42.06 C 185.56 45.24 172.39 41.02 159.37 39.18 C 144.44 38.51 129.61 42.70 116.36 49.41 C 106.94 53.52 98.22 59.63 87.98 61.54 C 76.68 62.09 64.18 61.62 54.48 68.44 C 49.14 72.07 47.94 78.72 46.41 84.53 C 45.49 89.30 40.84 92.75 41.46 97.92 C 41.06 102.38 43.57 106.14 45.57 109.87 C 44.90 113.30 42.60 116.40 43.04 120.03 C 43.10 123.16 44.52 125.98 46.09 128.61 C 44.24 132.15 43.03 136.47 44.78 140.30 C 46.53 144.12 50.57 146.13 54.42 147.24 C 59.71 148.81 65.28 148.83 70.74 149.18 C 80.91 152.73 90.01 159.71 101.00 160.73 C 118.35 160.76 135.70 160.79 153.05 160.71 C 173.15 159.81 191.69 151.05 209.59 142.64 C 208.65 146.24 205.48 148.48 203.07 151.09 C 193.23 160.96 178.72 163.10 165.65 165.70 C 165.68 165.92 165.74 166.36 165.77 166.59 C 147.19 166.41 128.61 166.50 110.04 166.54 C 104.27 167.14 98.55 165.95 92.90 164.92 C 81.11 162.69 69.27 159.82 58.54 154.27 C 51.57 150.71 45.50 145.51 40.50 139.51 C 36.44 134.61 33.19 128.54 33.48 122.00 C 33.59 115.00 33.35 107.99 33.61 100.99 C 33.95 94.57 36.77 88.76 38.99 82.86 C 40.33 74.20 46.45 67.42 52.46 61.48 C 60.85 53.73 69.94 45.57 81.51 43.26 Z"/>
<path fill="#ffffff" d=" M 139.51 45.71 C 151.42 43.29 164.46 42.13 175.78 47.48 C 172.54 55.26 170.88 65.43 176.71 72.40 C 168.68 78.76 168.66 91.53 175.08 99.03 C 181.60 107.29 192.64 111.42 203.01 110.03 C 208.56 108.95 213.90 107.03 219.27 105.31 C 220.09 111.73 217.14 117.58 215.45 123.59 C 213.49 130.74 207.60 135.81 201.64 139.74 C 181.96 152.36 158.30 158.02 135.04 157.50 C 125.18 157.22 115.19 158.36 105.48 156.19 C 97.92 154.55 90.16 152.67 83.62 148.39 C 78.92 144.60 72.54 144.74 66.86 143.98 C 61.78 143.38 55.87 143.83 51.78 140.20 C 49.21 137.99 50.42 134.38 50.24 131.45 C 60.54 132.07 71.28 130.00 81.19 133.67 C 83.04 134.05 84.43 132.53 85.77 131.54 C 89.72 131.47 93.67 131.51 97.63 131.50 C 98.26 139.11 104.05 144.98 110.19 148.85 C 112.86 150.24 116.84 151.66 119.34 149.31 C 121.39 147.29 119.62 144.56 118.66 142.49 C 117.75 140.22 116.21 137.91 116.35 135.40 C 119.07 132.02 124.91 131.65 125.93 126.81 C 127.39 122.26 122.91 118.40 118.83 117.65 C 106.47 116.81 93.73 119.08 81.70 115.22 C 71.21 112.01 60.20 109.38 51.01 103.14 C 47.33 101.06 45.97 95.30 49.36 92.41 C 53.05 91.36 57.06 92.62 60.79 91.55 C 62.92 91.03 64.72 89.74 66.51 88.55 C 66.50 87.43 66.50 86.31 66.49 85.19 C 63.03 84.61 60.14 86.48 57.02 87.52 C 51.51 88.03 50.21 80.46 52.80 76.84 C 56.57 71.68 63.13 69.88 68.98 68.19 C 80.54 65.67 92.25 63.76 103.78 61.11 C 115.44 55.48 126.63 48.30 139.51 45.71 Z"/>
<path fill="#ffffff" d=" M 185.24 47.21 C 190.23 45.75 195.66 47.27 200.04 49.82 C 210.68 56.22 217.76 67.77 219.47 79.99 C 220.17 85.16 220.76 90.93 217.68 95.50 C 212.76 102.51 203.54 106.36 195.11 104.56 C 189.05 103.50 183.72 99.79 179.91 95.06 C 177.36 91.77 175.59 87.32 176.98 83.19 C 177.95 79.98 180.90 78.05 183.69 76.54 C 186.74 80.53 189.76 84.53 192.83 88.51 C 193.69 88.50 195.39 88.50 196.25 88.50 C 196.24 85.86 196.25 83.23 196.27 80.60 C 191.88 75.65 186.95 71.20 181.59 67.33 C 178.40 65.16 178.86 60.79 179.17 57.46 C 179.53 53.42 181.16 48.82 185.24 47.21 Z"/>
<path fill="#000000" d=" M 93.27 73.51 C 99.87 68.22 108.63 65.17 117.09 66.34 C 126.72 68.95 135.36 74.66 142.22 81.82 C 146.23 85.73 151.14 88.58 156.30 90.70 C 158.99 91.83 162.25 93.51 162.53 96.80 C 162.07 99.24 161.00 101.49 160.06 103.77 C 159.36 103.76 157.95 103.75 157.25 103.75 C 157.21 99.43 158.19 93.76 153.74 91.18 C 146.20 87.16 136.94 88.09 128.94 90.14 C 121.30 92.04 116.11 98.51 109.07 101.54 C 104.09 99.18 98.16 98.54 93.62 102.23 C 92.71 102.23 90.88 102.22 89.97 102.22 C 90.01 99.47 92.41 97.92 93.82 95.85 C 96.07 92.76 97.74 88.72 96.63 84.88 C 95.60 81.06 94.20 77.35 93.27 73.51 Z"/>
<path fill="#ffffff" d=" M 98.93 75.82 C 102.48 72.66 106.07 68.72 111.23 68.72 C 118.18 67.20 124.58 71.05 129.73 75.27 C 132.68 77.78 135.91 79.95 138.76 82.57 C 138.89 83.08 139.16 84.08 139.30 84.59 C 137.62 84.39 135.78 84.73 134.24 83.89 C 132.58 82.53 132.29 80.29 131.71 78.36 C 125.59 74.11 117.59 72.80 110.54 75.39 C 106.79 76.33 102.14 79.59 98.93 75.82 Z"/>
<path fill="#000000" d=" M 76.90 74.38 C 79.44 76.82 81.01 80.30 80.44 83.86 C 79.90 89.12 76.15 93.21 72.30 96.49 C 71.28 96.50 70.25 96.51 69.23 96.52 C 72.24 93.44 76.50 91.19 77.87 86.84 C 79.48 82.73 77.10 78.53 76.90 74.38 Z"/>
<path fill="#ffffff" d=" M 109.52 80.42 C 113.23 78.23 117.52 77.71 121.75 77.98 C 121.75 79.17 121.74 80.36 121.74 81.55 C 118.09 84.65 112.38 84.49 109.52 80.42 Z"/>
<path fill="#ffffff" d=" M 101.04 81.70 C 104.94 80.57 105.79 85.03 108.75 86.26 C 112.15 87.85 116.13 88.16 119.78 87.36 C 123.04 86.73 124.91 83.76 127.15 81.62 C 127.82 83.95 127.72 86.93 124.86 87.61 C 116.93 90.00 105.39 90.16 101.04 81.70 Z"/>
<path fill="#ffffff" d=" M 100.16 90.66 C 104.47 90.09 108.11 92.54 111.77 94.39 C 110.50 95.22 109.46 96.51 107.95 96.88 C 105.35 96.72 102.77 96.20 100.16 96.49 C 100.44 94.55 100.38 92.60 100.16 90.66 Z"/>
<path fill="#ffffff" d=" M 48.65 112.30 C 50.11 112.29 51.57 112.28 53.03 112.25 C 53.01 113.37 52.98 114.49 52.96 115.60 C 50.84 117.90 50.45 121.01 50.38 124.00 C 49.83 124.00 48.72 124.01 48.17 124.01 C 46.66 120.16 47.32 116.08 48.65 112.30 Z"/>
<path fill="#ffffff" d=" M 57.29 123.86 C 53.34 120.97 57.88 116.00 61.15 114.87 C 65.09 114.49 69.93 115.02 72.48 118.45 C 74.25 120.88 73.24 123.97 72.95 126.68 C 67.95 124.47 62.16 126.24 57.29 123.86 Z"/>
<path fill="#ffffff" d=" M 78.62 120.52 C 80.49 120.50 82.36 120.50 84.23 120.50 C 84.73 121.48 85.24 122.45 85.75 123.43 C 84.48 125.15 83.28 126.93 82.14 128.75 C 80.30 126.32 78.18 123.79 78.62 120.52 Z"/>
<path fill="#ffffff" d=" M 90.75 122.75 C 92.43 122.74 94.11 122.74 95.80 122.74 C 96.17 124.16 96.55 125.58 96.92 127.00 C 94.82 127.00 92.72 127.00 90.62 127.00 C 90.66 125.58 90.70 124.16 90.75 122.75 Z"/>
<path fill="#ffffff" d=" M 102.26 122.75 C 105.75 122.75 109.25 122.75 112.75 122.75 C 112.85 130.18 112.56 137.60 112.29 145.01 C 109.19 142.02 105.07 139.66 103.47 135.44 C 101.69 131.44 102.35 126.99 102.26 122.75 Z"/>
<path fill="#ffffff" d=" M 30.10 187.13 C 32.97 183.33 37.20 179.67 42.22 179.77 C 49.37 181.41 56.39 183.58 63.37 185.83 C 67.84 187.28 72.35 188.81 76.29 191.43 C 75.72 194.12 73.91 196.24 72.48 198.51 C 71.74 198.50 70.25 198.50 69.51 198.50 C 69.50 199.18 69.49 200.56 69.49 201.25 C 62.78 201.23 56.08 201.29 49.38 201.21 C 49.15 198.29 50.51 195.90 53.23 194.83 C 53.24 194.06 53.25 192.52 53.26 191.75 C 51.66 191.74 50.07 191.75 48.47 191.76 C 46.70 194.31 41.72 195.73 43.32 199.58 C 45.30 204.01 50.51 205.86 55.00 206.53 C 63.55 207.81 70.80 202.18 78.50 199.52 C 79.28 195.78 80.46 192.00 83.06 189.09 C 86.93 189.23 91.38 189.90 93.75 193.35 C 96.21 197.13 96.86 202.46 94.31 206.38 C 87.65 216.18 75.66 221.73 63.88 221.01 C 54.52 221.09 45.83 217.31 36.74 215.79 C 36.74 215.12 36.74 213.78 36.75 213.11 C 26.86 209.26 23.68 195.28 30.10 187.13 Z"/>
<path fill="#ffffff" d=" M 194.54 189.65 C 200.71 184.31 209.57 180.86 217.63 183.54 C 224.19 186.24 229.95 192.43 229.97 199.85 C 229.78 205.95 225.43 210.63 223.09 215.98 C 222.40 215.99 221.03 216.01 220.35 216.03 C 216.87 219.94 211.71 221.51 206.93 223.17 C 197.14 226.26 185.85 226.55 176.77 221.21 C 171.60 218.40 167.10 213.21 167.48 206.99 C 167.77 201.13 166.84 194.39 170.37 189.34 C 172.61 189.21 174.80 189.92 177.03 190.03 C 181.00 190.57 184.60 188.38 188.52 188.29 C 186.87 194.38 183.55 201.03 186.61 207.24 C 189.91 213.88 198.55 214.63 205.04 213.67 C 209.75 213.22 212.87 209.36 216.26 206.53 C 216.25 203.86 216.25 201.18 216.25 198.51 C 215.56 198.50 214.17 198.48 213.48 198.47 C 212.12 202.10 210.51 205.98 207.16 208.22 C 202.12 211.78 194.50 209.88 191.11 204.93 C 188.03 199.92 190.41 193.30 194.54 189.65 Z"/>
<path fill="#ffffff" d=" M 102.35 194.94 C 101.73 192.71 104.32 191.07 106.22 190.80 C 110.26 191.61 114.29 192.43 118.39 192.85 C 119.29 197.69 120.70 203.25 125.31 205.87 C 128.95 207.80 134.03 208.31 137.28 205.35 C 141.91 201.78 141.89 195.38 144.39 190.49 C 149.55 190.52 154.72 190.46 159.88 190.54 C 160.19 192.25 161.01 193.98 160.62 195.75 C 159.19 201.49 159.45 207.85 155.88 212.88 C 151.24 220.18 142.33 223.06 134.11 223.68 C 127.00 224.60 119.80 223.02 113.12 220.62 C 110.04 219.64 108.35 216.74 106.05 214.70 C 105.24 211.85 105.71 208.87 105.28 205.97 C 104.48 202.25 103.00 198.70 102.35 194.94 Z"/>
<path fill="#ffffff" d=" M 125.25 192.75 C 129.42 192.76 133.59 192.73 137.76 192.79 C 137.06 196.91 135.26 200.98 131.89 203.61 C 129.76 202.57 127.54 201.73 125.25 201.10 C 125.25 198.32 125.25 195.54 125.25 192.75 Z"/>
</svg>